<?xml version="1.0" standalone="no"?>
<!DOCTYPE svg PUBLIC "-//W3C//DTD SVG 20010904//EN"
 "http://www.w3.org/TR/2001/REC-SVG-20010904/DTD/svg10.dtd">
<svg version="1.0" xmlns="http://www.w3.org/2000/svg"
 width="512.000000pt" height="512.000000pt" viewBox="0 0 512.000000 512.000000"
 preserveAspectRatio="xMidYMid meet">
<metadata>
Created by potrace 1.14, written by Peter Selinger 2001-2017
</metadata>
<g transform="translate(0.000000,512.000000) scale(0.100000,-0.100000)"
fill="#000000" stroke="none">
<path d="M2255 4474 c-782 -48 -1295 -206 -1295 -399 0 -206 622 -383 1408
-402 l252 -6 0 -298 0 -299 -153 0 c-593 0 -1182 108 -1406 258 l-59 39 -21
-37 c-53 -95 0 -174 174 -256 246 -117 718 -198 1223 -211 l242 -6 0 -299 0
-298 -132 0 c-626 0 -1209 110 -1444 271 l-42 29 -17 -27 c-27 -41 -30 -102
-6 -140 61 -97 280 -191 589 -253 269 -54 640 -90 925 -90 l127 0 0 -300 0
-300 -107 0 c-151 0 -453 18 -613 36 -420 48 -712 131 -876 250 -21 14 -23 13
-43 -19 -115 -186 264 -362 949 -441 163 -19 436 -36 583 -36 l107 0 0 -301 0
-301 138 7 c482 22 815 70 1076 156 174 57 276 121 315 196 7 15 11 128 11
353 0 324 0 332 -22 370 -22 38 -22 38 -3 60 19 21 20 40 23 362 3 328 2 342
-18 380 l-21 40 21 33 c19 31 20 48 20 365 0 321 -1 334 -21 370 l-22 38 22
35 c20 33 21 45 21 366 0 372 2 362 -72 426 -140 120 -501 214 -1018 265 -106
11 -704 21 -815 14z"/>
</g>
</svg>
