<?xml version="1.0" encoding="utf-8"?>
<!-- Generator: Adobe Illustrator 16.0.0, SVG Export Plug-In . SVG Version: 6.00 Build 0)  -->
<!DOCTYPE svg PUBLIC "-//W3C//DTD SVG 1.1//EN" "http://www.w3.org/Graphics/SVG/1.1/DTD/svg11.dtd">
<svg version="1.1" id="Layer_1" xmlns="http://www.w3.org/2000/svg" xmlns:xlink="http://www.w3.org/1999/xlink" x="0px" y="0px"
	 width="192px" height="192px" viewBox="0 0 192 192" enable-background="new 0 0 192 192" xml:space="preserve">
<g>
	<path fill="#F5F5F5" d="M110.541,169.446c-0.435,0.427-0.881,0.834-1.368,1.183C109.66,170.28,110.106,169.873,110.541,169.446z"/>
	<path fill="#F5F5F5" d="M147.298,158.855c0.126,0.254,0.328,0.506,0.428,0.762C147.626,159.361,147.425,159.108,147.298,158.855
		L147.298,158.855z"/>
	<path fill="#F5F5F5" d="M55.267,162.354c0.304-0.072,0.706-0.106,1.237-0.134c0,1.172,0,2.343,0,3.557c0-1.214,0-2.385,0-3.557
		C55.973,162.248,55.572,162.281,55.267,162.354z"/>
	<path fill="#F5F5F5" d="M112.059,167.92l0.009,0c0,0-0.009,0-0.013,0c0.001,0.004,0.001,0.008,0.002,0.01
		c0.001-0.001,0.002-0.001,0.004-0.002C112.061,167.925,112.061,167.922,112.059,167.92z"/>
	<path fill="#F5F5F5" d="M38.605,153.305c-5.849,7.333-11.699,14.666-17.608,22.073c-1.02-0.907-1.957-1.741-2.899-2.577
		c0.349-0.494,0.603-0.86,0.864-1.22c5.38-7.425,10.869-14.767,16.115-22.29c7.053-10.116,13.774-20.478,20.908-30.531
		c6.052-8.527,12.479-16.773,18.754-25.134c7.957-10.601,15.943-21.18,23.888-31.792c4.132-5.52,8.207-11.085,12.295-16.64
		c0.47-0.639,0.857-1.342,1.283-2.016c-0.126-0.089-0.252-0.178-0.378-0.267c-3.129,3.729-6.258,7.458-9.387,11.187
		c-0.083-0.069-0.166-0.14-0.25-0.209c0.291-0.596,0.581-1.193,0.87-1.79c-0.117-0.077-0.233-0.156-0.35-0.234
		c-19.705,23.737-38.419,48.317-58.034,72.136c0.631-0.939,1.262-1.878,1.893-2.817c-0.075-0.064-0.15-0.127-0.225-0.19
		c-7.133,8.066-14.266,16.132-21.398,24.199c-0.024-0.027-0.047-0.053-0.071-0.078c28.082-34.998,56.162-69.999,84.469-105.279
		c-2.282-1.211-4.172-2.209-6.055-3.216c-0.955-0.511-1.566-0.13-2.213,0.669C90.262,50.665,79.405,64.006,68.59,77.383
		c-10.369,12.824-20.695,25.685-31.049,38.523c-11.945,14.807-23.9,29.606-35.848,44.413c-0.323,0.4-0.606,0.834-1.017,1.404
		c7.052,5.575,13.996,11.064,21.116,16.692c5.837-8.377,11.535-16.551,17.232-24.726C38.884,153.562,38.745,153.433,38.605,153.305z
		 M13.713,168.838c-0.115-0.218-0.232-0.436-0.348-0.654c3.97-4.758,7.941-9.517,11.911-14.276c0.093,0.076,0.187,0.153,0.281,0.228
		c-0.997,1.439-1.942,2.919-3.001,4.308c-2.537,3.322-5.115,6.611-7.715,9.88C14.609,168.616,14.096,168.672,13.713,168.838z"/>
	<path fill="#F5F5F5" d="M110.661,133.67c0.849-3.025,1.712-6.095,2.596-9.244c1.264,0.379,2.38,0.716,3.566,1.072
		c-0.847,3.143-1.657,6.149-2.521,9.356c2.668,0.707,5.13,1.359,7.621,2.019c0.905-3.303,1.737-6.348,2.548-9.305
		c2.444,0.299,4.689,0.702,6.95,0.83c7.017,0.393,12.366-3.138,14.579-9.497c2.518-7.233-0.004-13.416-6.72-16.477
		c-0.251-0.115-0.49-0.259-1.016-0.541c0.82-0.112,1.326-0.185,1.833-0.251c6.773-0.88,10.959-6.89,9.532-13.775
		c-1.027-4.964-4.367-7.812-8.675-9.698c-0.954-0.417-1.95-0.725-3.041-1.125c0.517-2.135,1.015-4.192,1.525-6.301
		c-2.448-0.624-4.688-1.194-7.042-1.794c-0.618,2.124-1.212,4.164-1.824,6.265c-0.988-0.266-1.854-0.498-2.857-0.767
		c0.556-2.176,1.085-4.241,1.66-6.486c-2.395-0.52-4.667-1.012-6.901-1.497c-0.636,2.132-1.19,3.997-1.753,5.883
		c-1.803-0.466-3.412-0.885-5.021-1.297c-1.6-0.41-3.202-0.813-4.884-1.24c-0.818,2.742-1.59,5.336-2.347,7.875
		c2.94,2.076,3.379,2.836,2.748,5.148c-2.592,9.459-5.23,18.906-7.818,28.367c-0.255,0.938-0.654,1.205-1.575,0.991
		c-1.318-0.308-2.63,0.102-3.169,1.324c-0.885,2.006-1.433,4.169-2.141,6.32c3.208,0.943,6.116,1.798,9.062,2.665
		c-0.515,1.748-0.967,3.277-1.424,4.83c1.691,1.077,3.295,2.286,3.668,4.281C108.147,133.347,109.085,133.701,110.661,133.67z
		 M125.151,83.021c2.86,0.775,5.754,1.265,8.166,3.078c2.026,1.524,2.665,3.918,1.851,6.354c-0.841,2.526-3.023,4.185-5.765,3.935
		c-2.453-0.223-4.872-0.857-7.513-1.35C123.029,90.845,124.068,87.012,125.151,83.021z M119.846,102.586
		c3.324,0.991,6.656,1.607,9.566,3.444c2.45,1.548,3.545,4.339,2.871,6.944c-0.731,2.817-3.008,4.73-5.922,4.863
		c-3.471,0.156-6.684-1.111-10.161-1.938C117.427,111.418,118.617,107.077,119.846,102.586z"/>
	<path fill="#F5F5F5" d="M173.716,101.932c-0.586-7.628-2.689-14.81-7.861-20.582c-4.557-5.086-9.376-9.924-14.06-14.89
		c-1.332-1.412-2.589-2.9-3.896-4.337c-0.669-0.735-1.264-1.629-2.077-2.125c-8.761-5.33-18.275-6.921-28.297-5.865
		c-0.288,0.03-0.676,0.095-0.825,0.295c-1.168,1.57-2.291,3.177-3.468,4.831c0.299,0.11,0.342,0.145,0.376,0.136
		c0.34-0.084,0.676-0.184,1.016-0.262c5.927-1.363,11.869-1.591,17.809-0.128c5.589,1.376,10.799,3.612,15.3,7.373
		c0.291,0.243,0.38,0.744,0.563,1.125c-0.402-0.016-0.858,0.092-1.198-0.065c-2.542-1.188-4.992-2.623-7.601-3.616
		c-9.789-3.724-19.635-4.083-29.459-0.063c-0.554,0.227-1.19,0.504-1.537,0.96c-1.064,1.403-2.006,2.903-3.066,4.468
		c19.36-8.181,36.445-6.048,49.735,11.621c9.692,12.885,10.259,29.885,2.324,43.159c-8.009,13.397-25.533,23.117-46.125,16.612
		c0.271,0.623,0.555,1.164,0.746,1.741c0.209,0.634,0.276,1.321,0.524,1.936c0.1,0.25,0.493,0.458,0.788,0.531
		c12.486,3.14,24.428,1.651,35.011-5.909c14.045-10.039,20.206-23.992,17.458-41.654c-0.341-2.197-1.013-4.342-1.544-6.563
		c0.311-0.18,0.608-0.361,0.913-0.523c0.296-0.157,0.601-0.293,0.936-0.455c0.16,0.322,0.299,0.551,0.393,0.798
		c3.99,10.597,4.018,21.224-0.433,31.614c-8.034,18.753-26.06,29.813-47.458,27.133c-1.839-0.23-3.661-0.606-5.636-0.938
		c0,0.726,0.003,1.303,0,1.881c-0.013,2.249-0.016,2.26,2.191,2.749c7.754,1.713,15.455,1.443,23.12-0.613
		C160.817,146.286,175.522,125.419,173.716,101.932z"/>
	<path fill="#F5F5F5" d="M76.557,12.108c9.691,2.164,18.985,5.553,27.867,10.099c0.646,0.331,1.029,0.306,1.406-0.307
		c0.208-0.339,0.459-0.649,0.793-1.111C92.027,13.791,77.019,9.003,61.001,7.875c6.696,0.318,13.38,0.695,20.011,1.526
		c9.508,1.193,18.657,3.896,27.431,7.875c0.704,0.319,1.116,0.285,1.648-0.385c2.292-2.893,4.666-5.714,6.994-8.576
		c0.515-0.634,0.965-1.323,1.461-2.009c-0.253-0.16-0.353-0.254-0.469-0.293c-8.199-2.694-16.61-4.321-25.161-5.164
		c-13.375-1.317-26.738-1.16-40.041,0.854C42.906,3.213,33.107,5.469,23.826,9.67c-1.034,0.468-2.048,0.984-3.071,1.477
		c1.235-0.024,2.397-0.195,3.555-0.399C41.813,7.676,59.234,8.24,76.557,12.108z"/>
	<path fill="#F5F5F5" d="M87.29,148.772c-1.124-2.337-3.531-3.628-4.245-6.214c1.365,1.14,2.729,2.281,4.093,3.422
		c-1.076-2.324-3.418-3.656-4.103-6.211c1.112,1.004,2.225,2.008,3.337,3.011c0.068-0.073,0.137-0.147,0.205-0.22
		c-1.442-1.931-2.885-3.86-4.327-5.792c0.091-0.068,0.183-0.137,0.274-0.205c1.098,1.066,2.197,2.132,3.295,3.199
		c0.065-0.067,0.13-0.136,0.195-0.204c-1.91-2.764-3.817-5.527-5.727-8.29c0.096-0.078,0.192-0.156,0.288-0.232
		c0.804,0.983,1.609,1.967,2.413,2.952c0.088-0.101,0.176-0.202,0.264-0.302c-3.223-4.746-6.923-8.88-12.819-10.169
		c-5.963-1.304-12.295,1.361-14.811,4.191c6.355-2.554,11.949-3.309,14.055-2.188c-2.045,0.45-4.465,0.981-6.886,1.511
		c0.026,0.133,0.054,0.269,0.08,0.402c0.417,0,0.835,0.015,1.252-0.001c5.836-0.231,10.586,2.69,12.854,7.987
		c1.753,4.097,1.817,8.371,1.067,12.702c-1.42,8.201-5.528,14.849-11.28,20.535c-4.613,4.559-9.946,7.657-16.456,8.06
		c-7.059,0.438-12.42-2.974-14.148-9.919c-0.031-0.125-0.093-0.242-0.16-0.411c-1.208,1.628-2.153,3.063-1.579,5.079
		c1.213,4.266,3.715,7.332,7.821,8.772c6.55,2.299,12.703,0.751,18.535-2.52c5.33-2.989,9.406-7.441,12.827-12.511
		c4.687-6.947,7.554-14.568,7.494-23.148c-0.014-1.929-0.254-3.857-0.406-6.013c0.163,0.594,0.284,0.974,0.371,1.362
		c0.93,4.159,0.677,8.326-0.174,12.434c-2.169,10.467-7.622,18.909-15.509,25.734c-4.429,3.833-9.487,6.434-15.312,7.085
		c-2.121,0.237-4.287,0.038-6.57,0.038c2.237,1.716,4.37,3.351,6.502,4.986c0.079-0.094,0.157-0.189,0.235-0.284
		c-1.321-1.199-2.641-2.396-3.961-3.595c0.152-0.18,0.304-0.359,0.456-0.538c2.726,1.085,4.358,3.974,7.264,4.819
		c-1.32-1.44-2.641-2.881-3.962-4.322c0.105-0.109,0.211-0.22,0.316-0.329c2.515,1.114,3.908,4.028,6.622,4.826
		c0.152-0.18,0.304-0.359,0.455-0.539c-1.537-1.289-3.074-2.58-4.611-3.869c0.186-0.249,0.373-0.497,0.558-0.745
		c0.565,0.317,1.2,0.547,1.68,0.964c1.165,1.015,2.209,2.182,3.405,3.154c0.432,0.352,1.155,0.323,1.746,0.47
		c0.043-0.139,0.085-0.277,0.128-0.416c-1.519-1.456-3.264-2.72-4.005-4.863c1.497,1.047,2.891,2.2,4.063,3.555
		c0.911,1.053,1.724,1.113,2.731,0.446c-1.297-1.281-2.591-2.528-3.845-3.817c-0.228-0.235-0.295-0.635-0.436-0.958
		c0.378,0.093,0.86,0.067,1.115,0.301c1.074,0.988,2.067,2.067,3.116,3.087c1.231,1.195,1.423,1.188,2.945,0.022
		c-2.024-1.033-3.661-2.476-4.785-4.564c0.554,0.029,1.036,0.205,1.402,0.521c1.034,0.9,2.009,1.871,3.028,2.788
		c1.354,1.218,1.42,1.207,2.59,0.135c-1.686-1.436-3.399-2.895-5.113-4.354c0.109-0.198,0.217-0.396,0.327-0.594
		c0.473,0.178,1.027,0.25,1.404,0.553c1.1,0.884,2.121,1.87,3.188,2.798c1.448,1.262,1.506,1.25,2.801-0.25
		c-2.202-0.921-3.952-2.392-5.138-4.573c2.308,0.828,3.796,2.877,5.958,4.142c0.426-0.344,0.917-0.742,1.274-1.031
		c-1.643-1.295-3.202-2.49-4.71-3.749c-0.243-0.202-0.263-0.687-0.386-1.043c0.364,0.048,0.824-0.031,1.078,0.167
		c1.25,0.979,2.437,2.043,3.665,3.053c1.175,0.968,1.401,0.904,2.146-0.403c-1.516-1.137-3.045-2.233-4.502-3.422
		c-0.317-0.258-0.377-0.849-0.556-1.286c0.449,0.111,0.979,0.105,1.334,0.356c1.293,0.918,2.569,1.872,3.771,2.912
		c0.93,0.802,1.406,0.549,1.769-0.41c-1.63-1.2-3.197-2.333-4.742-3.493c-0.768-0.578-0.806-1.178,0.075-1.797
		c1.533,1.172,3.012,2.353,4.551,3.446c0.384,0.273,0.961,0.257,1.45,0.375c-0.28-0.426-0.485-0.943-0.854-1.258
		c-1.107-0.944-2.312-1.77-3.411-2.724c-0.497-0.432-1.104-1-0.305-1.894c1.908,1.349,3.813,2.695,5.716,4.041
		c0.137-0.138,0.273-0.273,0.411-0.411c-0.273-0.347-0.502-0.749-0.829-1.029c-1.242-1.059-2.519-2.076-3.777-3.113
		c-0.607-0.501-0.625-0.99,0.085-1.532c1.904,1.263,3.792,2.515,5.68,3.769c0.105-0.156,0.21-0.312,0.316-0.468
		c-0.374-0.336-0.728-0.697-1.123-1.003c-1.082-0.836-2.186-1.64-3.269-2.474c-0.788-0.607-0.984-1.315-0.218-2.201
		c1.892,1.292,3.778,2.579,5.663,3.866c0.189-0.221,0.379-0.439,0.568-0.658c-0.453-0.25-0.941-0.451-1.352-0.759
		c-1.091-0.821-2.143-1.701-3.225-2.537c-0.852-0.658-1.04-1.377-0.219-2.336c1.825,1.25,3.654,2.504,5.484,3.758
		c0.087-0.128,0.175-0.257,0.262-0.385c-1.421-1.229-2.811-2.504-4.277-3.673c-0.926-0.737-0.875-1.392-0.129-2.243
		c1.795,1.273,3.552,2.518,5.31,3.763c0.096-0.134,0.192-0.268,0.288-0.402c-1.4-1.182-2.76-2.414-4.211-3.524
		c-1.007-0.771-1.056-1.5-0.244-2.458c1.667,1.189,3.315,2.363,4.964,3.538c0.079-0.109,0.157-0.219,0.235-0.328
		c-1.309-1.096-2.62-2.19-3.924-3.292c-0.753-0.636-1.309-1.325-0.479-2.356c1.613,1.189,3.199,2.356,4.784,3.526
		c0.079-0.105,0.158-0.211,0.236-0.316c-1.301-1.191-2.639-2.344-3.883-3.595c-0.416-0.416-0.593-1.085-0.879-1.638
		c0.153-0.121,0.306-0.24,0.459-0.359c1.568,1.192,3.136,2.384,4.704,3.577c0.073-0.091,0.146-0.182,0.219-0.274
		c-1.24-1.178-2.515-2.317-3.703-3.549c-0.435-0.452-0.663-1.113-0.985-1.679c0.141-0.103,0.282-0.206,0.423-0.309
		c1.404,1.109,2.81,2.22,4.214,3.328c0.184-0.207,0.368-0.416,0.551-0.624c-0.91-0.752-1.842-1.478-2.725-2.262
		c-1.8-1.593-1.83-1.678-1.729-2.978c1.512,1.207,3.004,2.396,4.497,3.586c-1.268-2.208-3.34-3.686-4.457-5.917
		c0.094-0.09,0.188-0.177,0.282-0.267C84.455,146.427,85.872,147.6,87.29,148.772z"/>
	<path fill="#F5F5F5" d="M152.681,58.973c-0.287,1.355-0.068,2.371,0.97,3.362c4.513,4.307,8.972,8.674,13.425,13.049
		c1.449,1.422,3.082,1.614,4.837,0.879c0.962-0.402,1.953-0.882,2.733-1.567c5.885-5.161,9.448-11.642,10.375-19.569
		c0.15-2.733-0.659-4.938-2.838-6.617c-3.25-2.503-6.506-5.009-9.617-7.691c-2.636-2.271-5.233-2.097-7.969-0.439
		c-0.86,0.521-1.702,1.106-2.463,1.772C157.045,46.602,154.09,52.323,152.681,58.973z M155.419,59.07
		c-0.192,0.586-0.3,0.911-0.4,1.211c-1.523-1.322,2.001-8.553,4.809-10.531c-1.243,3.605-2.494,7.23-3.746,10.864
		C155.948,60.301,155.787,59.925,155.419,59.07z M177.433,53.298c0.831-0.621,1.8-1.13,2.78-1.433
		c1.536-0.475,2.394,0.256,2.299,1.899c-0.063,1.061-0.212,2.162-0.564,3.153c-2.08,5.85-5.156,11.065-9.604,15.357
		c-0.536,0.519-1.138,0.982-1.757,1.393c-1.417,0.938-2.255,0.648-2.818-1.014c-0.225-0.664-0.258-1.397-0.317-1.741
		c0.056-3.158,1.231-5.576,2.387-7.99C171.66,59.129,174.081,55.808,177.433,53.298z M168.922,57.167
		c-1.216,3.711-2.515,7.67-3.75,11.438l0,0l0,0c-0.011-0.035-0.101-0.3-0.208-0.62c-0.266,0.204-0.491,0.377-0.7,0.539
		C162.521,67.401,165.818,59.722,168.922,57.167z M166.15,54.405c-1.317,3.828-2.647,7.699-4.003,11.644
		c-0.169-0.282-0.317-0.53-0.45-0.752c-0.155,0.192-0.283,0.35-0.385,0.477C159.428,64.766,162.949,56.761,166.15,54.405z
		 M162.997,52.125c-1.316,3.92-2.576,7.671-3.806,11.335c-0.079-0.229-0.212-0.621-0.381-1.11c-0.339,0.186-0.61,0.334-1,0.548
		C157.869,58.389,159.832,55.012,162.997,52.125z"/>
	<path fill="#F5F5F5" d="M56.357,135.325c-3.713,1.033-3.785,1.079-3.862,4.916c-0.02,1.021-0.37,1.537-1.293,1.845
		c-0.994,0.331-1.947,0.798-2.911,1.222c-2.353,1.034-2.351,1.039-2.068,3.865c1.53-0.504,3.052-1.006,4.615-1.52
		c0,0.668,0.035,1.251-0.006,1.828c-0.255,3.586-0.615,7.167-0.754,10.756c-0.065,1.663-0.637,2.542-2.22,2.851
		c-0.807,0.158-1.591,0.497-2.346,0.842c-0.301,0.138-0.664,0.492-0.709,0.793c-0.144,0.948-0.151,1.916-0.222,3.04
		c1.949-0.623,3.69-1.178,5.528-1.766c0,1.719,0,3.345,0,5.034c0.361-0.095,0.615-0.151,0.861-0.228
		c3.163-0.995,3.163-0.995,3.311-4.442c0.02-0.462,0.047-0.82,0.107-1.101c0.019-0.084,0.041-0.16,0.065-0.229
		c0.079-0.222,0.192-0.381,0.365-0.496c0.04-0.026,0.083-0.05,0.129-0.072c0.093-0.044,0.199-0.08,0.32-0.11
		c0.305-0.072,0.706-0.106,1.238-0.134c0,1.172,0,2.343,0,3.557c0,0.405,0,0.816,0,1.233c4.139-0.73,4.153-0.745,4.336-4.792
		c0.006-0.136,0.029-0.273,0.014-0.404c-0.099-0.842,0.346-1.108,1.076-1.335c1.666-0.518,3.4-0.968,4.913-1.813
		c3.162-1.765,5.29-4.406,5.441-8.308c0.107-2.773-1.508-4.415-4.175-4.331c-0.351,0.011-0.702,0.001-0.774,0.001
		c0.791-1.318,1.844-2.578,2.359-4.039c1.13-3.203-0.811-5.513-4.089-5.056c-0.94,0.131-1.854,0.456-2.781,0.693
		c0-1.579,0-3.128,0-4.663c-0.09-0.025-0.136-0.054-0.174-0.047c-3.513,0.726-3.805,1.076-3.921,4.688
		c-0.072,2.188-0.072,2.188-2.277,2.535c0.074-1.597,0.147-3.184,0.218-4.702C56.438,135.353,56.391,135.315,56.357,135.325z
		 M63.659,151.331c0.654,1.181,0.24,2.385-0.645,3.179c-1.03,0.924-2.238,1.688-3.47,2.312c-1.082,0.547-2.303,0.802-3.741,1.278
		c0.12-2.136,0.206-4.06,0.36-5.978c0.021-0.266,0.335-0.643,0.589-0.728c1.286-0.427,2.583-0.841,3.902-1.13
		C61.819,150.007,63.003,150.143,63.659,151.331z M56.719,144.135c0.015-0.207,0.073-0.457,0.203-0.6
		c0.533-0.584,3.665-1.145,4.393-0.776c0.89,0.451,1.384,1.26,1.001,2.198c-0.354,0.865-0.89,1.813-1.616,2.32
		c-1.233,0.862-2.677,1.407-4.316,2.227C56.511,147.432,56.606,145.781,56.719,144.135z"/>
	<path fill="#F5F5F5" d="M54.453,163.032c0.079-0.222,0.192-0.381,0.365-0.496C54.645,162.65,54.531,162.81,54.453,163.032z"/>
	<path fill="#F5F5F5" d="M61.226,72.866c-0.589-3.407-2.001-5.939-4.186-7.978c-4.317-4.026-9.242-6.959-15.002-8.168
		c-6.271-1.315-12.466-1.273-18.263,1.963c-4.592,2.564-7.427,6.49-7.406,11.997c0.021,5.791,3.231,9.809,7.753,12.903
		c-0.31-0.402-0.673-0.773-0.917-1.213c-1.293-2.33-2.85-4.562-3.771-7.041c-2.165-5.823-0.306-11.11,4.819-14.462
		c2.123-1.389,4.489-2.119,6.988-2.346c-0.929,0.391-1.906,0.646-2.821,1.052c-4.416,1.959-7.523,5.087-8.103,10.222
		c-0.43,3.815,1.025,7.147,3.365,9.905c6.795,8.003,15.492,10.682,25.536,8.913c1.778-0.313,3.446-1.284,5.165-1.951
		c-0.041-0.119-0.082-0.238-0.123-0.357c-7.04,2.138-13.816,1.516-20.323-1.932c6.391,1.575,10.333,1.778,12.995,0.483
		c-0.658,0-1.134-0.005-1.611,0.001c-3.54,0.045-6.96-0.568-10.245-1.948c-3.638-1.53-6.806-3.683-8.932-7.188
		c-1.379-2.273-1.689-4.712-0.778-7.229c1.315-3.634,4.184-5.387,7.67-5.942c7.223-1.152,13.233,1.387,18.106,6.884
		c0.544,0.615,0.954,1.039,1.862,0.766c0.36-0.108,1,0.255,1.314,0.596c1.301,1.407,2.524,2.889,3.777,4.344
		c0.076-0.034,0.152-0.068,0.229-0.103c-1.04-2.258-2.078-4.516-3.117-6.774c0.057-0.044,0.113-0.089,0.17-0.133
		c1.663,2.361,3.324,4.721,4.986,7.081c0.073-0.024,0.145-0.049,0.218-0.074c-0.757-1.935-1.514-3.869-2.271-5.805
		c0.07-0.041,0.14-0.082,0.209-0.122C59.347,70.328,60.175,71.447,61.226,72.866z M32.128,60.938
		c-4.405,0.938-7.578,3.587-8.659,8.329c-0.177,0.775-0.162,1.597-0.261,2.663c-0.787-5.119,2.108-9.336,7.275-10.999
		c3.425-1.102,6.879-1.042,9.22-0.669C37.921,60.404,34.957,60.335,32.128,60.938z"/>
	<path fill="#F5F5F5" d="M132.305,31.397c0.727-0.098,1.21-0.163,1.983-0.268c-0.47,0.848-0.797,1.441-1.196,2.16
		c6.059,3.727,12.085,7.434,18.17,11.176c1.35-2.754,3.229-4.741,6.24-5.503c-3.046,3.255-4.23,7.422-5.895,11.316
		c-7.277-5.057-14.219-10.528-21.827-14.987c6.633,6.014,14.134,10.846,21.053,16.439c-0.169,0.654-0.313,1.208-0.485,1.872
		c-7.269-5.304-14.437-10.535-21.714-15.846c-0.351,0.608-0.599,1.041-0.843,1.462c7.72,5.678,15.3,11.253,22.987,16.907
		c1.705-7.325,5.357-13.266,11.225-17.797c-7.316-6.251-13.333-13.767-20.946-19.401C138.148,23.072,135.278,27.161,132.305,31.397z
		"/>
	<path fill="#F5F5F5" d="M109.845,22.357c6.441,2.779,11.716,6.875,16.081,12.352c0.309-0.359,0.577-0.643,0.814-0.952
		c3.679-4.8,7.309-9.64,11.063-14.376c0.779-0.983,0.782-1.581,0.065-2.49c-3.775-4.79-8.541-8.161-14.02-10.563
		c-0.975-0.427-1.358,0.179-1.826,0.761c-3.793,4.705-7.583,9.413-11.369,14.125C110.366,21.574,110.12,21.967,109.845,22.357z
		 M135.276,16.274c0.564,0.675,1.014,1.212,1.567,1.875c-3.585,4.772-7.126,9.486-10.712,14.26
		c-0.571-0.659-1.086-1.254-1.727-1.994C128.005,25.733,131.575,21.089,135.276,16.274z"/>
	<path fill="#F5F5F5" d="M120.703,179.755c-4.426,1.032-8.934,1.509-13.427,1.01c-5.072-0.564-10.098-1.559-15.146-2.359
		c-0.596-0.095-1.197-0.149-1.796-0.222c0.428,0.592,0.867,0.994,1.379,1.208c1.331,0.558,1.722,1.552,1.64,2.958
		c-0.089,1.524-0.041,3.056-0.001,4.584c0.011,0.4,0.208,0.796,0.319,1.194c0.14-0.028,0.278-0.052,0.416-0.077
		c0-2.415,0-4.83,0-7.279c1.401,0.266,1.423,0.266,1.448,1.402c0.043,1.933,0.025,3.867,0.099,5.797
		c0.018,0.472,0.292,0.932,0.447,1.396c0.168-0.042,0.338-0.083,0.505-0.125c0-2.564,0-5.127,0-7.664
		c1.215-0.156,1.582,0.293,1.551,1.354c-0.059,2.022-0.042,4.048,0.026,6.069c0.016,0.437,0.38,0.863,0.583,1.293
		c0.17-0.064,0.338-0.126,0.508-0.191c0-2.664,0-5.328,0-7.967c1.162-0.152,1.457,0.341,1.441,1.305
		c-0.038,2.157-0.019,4.316,0.018,6.474c0.016,0.935,0.06,0.935,1.185,0.875c0-2.706,0-5.421,0-8.131
		c0.983-0.167,1.237,0.229,1.231,1.025c-0.017,2.159,0.065,4.319-0.004,6.474c-0.043,1.338,0.555,1.479,1.776,1.198
		c0-2.506,0.018-4.972-0.012-7.438c-0.01-0.856,0.217-1.206,1.13-0.765c0,2.17,0.006,4.369-0.002,6.568
		c-0.007,2.24-0.013,2.24,2.377,1.929c0-2.595-0.018-5.108,0.022-7.619c0.004-0.307,0.308-0.609,0.473-0.913
		c0.2,0.31,0.566,0.615,0.576,0.932c0.053,2.157,0.102,4.318,0.006,6.471c-0.056,1.262,0.426,1.618,1.525,1.433
		c0.333-0.056,0.667-0.116,1.094-0.189c0-2.895,0-5.711,0-8.529c0.148-0.068,0.297-0.136,0.444-0.205
		c0.205,0.358,0.577,0.715,0.584,1.079c0.051,2.508,0.027,5.016,0.027,7.487c2.585,0.438,2.686,0.354,2.688-2.026
		c0.002-1.844,0.002-3.688,0.02-5.531c0.004-0.399,0.079-0.797,0.12-1.196c0.187,0.003,0.373,0.005,0.56,0.007
		c0,2.838,0,5.676,0,8.535c2.569-0.216,2.568-0.216,2.554-2.39c-0.004-0.451-0.001-0.9-0.001-1.349c0-1.639,0-3.276,0-4.914
		c0.146,0.001,0.291,0.005,0.438,0.007c0,2.67,0,5.34,0,8.026c2.319-0.269,2.311-0.269,2.307-2.398
		c-0.003-1.528,0.016-3.058,0.041-4.585c0.006-0.433,0.068-0.866,0.104-1.299c0.112,0.011,0.226,0.021,0.339,0.033
		c0,2.458,0,4.916,0,7.384c2.217-0.196,2.403-0.394,2.406-2.367c0.003-1.889,0.01-3.778,0.033-5.666
		c0.002-0.244,0.111-0.486,0.172-0.73c0.096,0.014,0.192,0.03,0.289,0.044c0,2.536,0,5.074,0,7.646
		c2.914-0.869,3.515-1.687,3.473-4.539c-0.018-1.079-0.03-2.158-0.018-3.236c0.009-0.769,0.065-1.535,0.099-2.302
		c0.149,0.005,0.299,0.011,0.448,0.017c0,2.4,0,4.801,0,7.465c1.263-1.177,1.78-2.251,1.719-3.682
		c-0.075-1.75-0.046-3.51,0.048-5.258c0.055-0.996,0.332-1.979,0.548-3.178c-0.363,0.207-0.528,0.262-0.646,0.375
		C127.998,177.282,124.518,178.866,120.703,179.755z"/>
	<path fill="#F5F5F5" d="M159.048,165.526c-8.741,2.894-17.48,2.463-26.195-0.18c-0.929-0.281-1.85-0.594-2.775-0.893
		c-0.145,0.19-0.289,0.378-0.435,0.567c0.516,0.339,0.991,0.806,1.554,0.993c1.869,0.618,1.773,2.178,1.804,3.7
		c0.021,0.944,0.015,1.888,0.052,2.831c0.01,0.249,0.141,0.494,0.216,0.74c0.114-0.014,0.228-0.029,0.342-0.045
		c0-1.902,0-3.807,0-5.747c1.186-0.012,1.573,0.447,1.533,1.478c-0.06,1.526-0.061,3.059,0.021,4.583
		c0.028,0.486,0.402,0.952,0.616,1.427c0.149-0.051,0.297-0.103,0.447-0.154c0-2.17,0-4.338,0-6.486
		c0.982-0.09,1.318,0.269,1.306,1.152c-0.023,1.798,0.004,3.597,0.09,5.392c0.021,0.432,0.35,0.849,0.537,1.273
		c0.159-0.055,0.318-0.109,0.477-0.163c0-2.356,0-4.711,0-7.18c0.622,0.126,1.07,0.218,1.607,0.327c0,2.208-0.035,4.317,0.028,6.422
		c0.014,0.447,0.384,0.882,0.59,1.321c0.175-0.06,0.351-0.12,0.526-0.179c0-2.405,0-4.811,0-7.19
		c1.166-0.288,1.616,0.003,1.577,1.145c-0.063,1.84,0.012,3.684-0.003,5.525c-0.007,0.804,0.235,1.194,1.219,0.859
		c0-2.414,0-4.869,0-7.455c0.566,0.026,0.97,0.043,1.549,0.069c0,2.646,0,5.18,0,7.65c1.134,0.34,1.292-0.187,1.283-1.009
		c-0.027-2.148-0.009-4.298-0.009-6.532c0.524,0,0.927,0,1.434,0c0,2.565,0,5.063,0,7.672c0.695-0.056,1.281-0.104,1.971-0.162
		c0-2.056-0.033-3.982,0.021-5.906c0.017-0.601,0.271-1.193,0.415-1.79c0.156,0.575,0.427,1.146,0.443,1.725
		c0.056,1.95,0.021,3.901,0.021,6.028c1.666-0.284,3.008-0.455,4.325-0.748c3.405-0.756,6.642-1.919,9.388-4.241
		c0.93-0.787,1.394-1.687,1.437-2.994c0.069-2.133,0.442-4.253,0.599-6.385c0.064-0.864-0.106-1.748-0.193-2.933
		C164.644,162.738,162.25,164.465,159.048,165.526z"/>
	<path fill="#F5F5F5" d="M37.139,36.271c-1.911,2.564-1.744,5.796,0.393,8.865c2.355,3.381,5.609,5.439,9.428,6.67
		c1.089,0.352,1.745,0.087,2.012-0.79c-1.964-0.907-3.954-1.619-5.733-2.698c-2.563-1.554-4.652-3.658-5.571-6.711
		c-0.747-2.482,0.325-5.183,2.39-5.93c-1.679,1.645-2.11,3.578-1.309,5.706c0.387,1.027,0.928,2.056,1.622,2.885
		c2.378,2.842,5.4,4.716,8.972,5.457c3.745,0.778,7.132,0.126,9.617-3.222c-0.75,3.542-3.715,3.815-6.479,4.449
		c1.059,0.914,2.19,0.942,3.373,0.638c4.181-1.076,5.979-5.066,4.194-9.296c-3.05-7.227-13.836-11.355-20.72-7.877
		C38.497,34.836,37.702,35.516,37.139,36.271z M43.323,37.38c1.921-0.566,3.718,0.097,5.499,0.708
		c1.197,0.41,2.345,0.854,2.655,2.431c0.125,0.637,0.764,1.173,1.194,1.735c0.512,0.671,1.108,1.28,1.566,1.984
		c1.323,2.033,0.975,3.233-1.321,3.879c-1.04,0.293-2.244,0.146-3.342-0.02c-0.843-0.127-1.648-0.572-2.451-0.922
		c-0.513-0.223-0.991-0.529-1.328-0.712c1.886,0.253,3.832,0.514,5.947,0.798c-1.415-1.389-2.554-2.525-3.713-3.64
		c-1.083-1.042-2.13-2.125-3.814-2.071c-0.359,0.012-0.779-0.375-1.087-0.67c-0.721-0.688-1.325-0.822-1.782,0.308
		C40.611,39.734,41.597,37.889,43.323,37.38z"/>
	<path fill="#F5F5F5" d="M90.783,168.208c0,1.959,0.012,3.792-0.005,5.626c-0.007,0.76,0.234,1.094,1.14,0.739
		c0-2.061,0-4.151,0-6.288c0.617,0,1.087,0,1.744,0c0,2.166,0,4.293,0,6.448c0.881,0,1.577-0.034,2.27,0.008
		c0.984,0.059,1.276-0.384,1.228-1.371c-0.077-1.555-0.021-3.119-0.021-4.679c0.119-0.001,0.236-0.004,0.355-0.008
		c0,1.899,0,3.798,0,5.671c3.008,0.2,8.703-1.596,11.679-3.728c0.487-0.348,0.934-0.756,1.368-1.182
		c0.038-0.037,0.077-0.073,0.114-0.11c0.013-0.013,0.026-0.027,0.04-0.04c0.323-0.323,0.643-0.654,0.965-0.978
		c0.015-0.014,0.029-0.028,0.043-0.042c0.035-0.035,0.071-0.068,0.107-0.104c0.083-0.081,0.164-0.163,0.248-0.242
		c0-0.003,0-0.007-0.002-0.01c0-0.011,0-0.023-0.001-0.035c-0.194-0.469-0.515-0.931-0.536-1.409
		c-0.072-1.539-0.027-3.084,0.241-4.641c0.098,2.017,0.194,4.033,0.294,6.049c0.005,0.012,0.011,0.023,0.014,0.035
		c-0.002,0.002-0.004,0.005-0.007,0.009c0.007,0.039,0.007,0.086,0.03,0.108c0.025,0.022,0.105,0.03,0.11,0.021
		c0.361-0.82,0.939-1.618,1.033-2.471c0.28-2.578,0.378-5.178,0.532-7.77c0.02-0.32-0.044-0.647-0.091-1.261
		c-3.42,5.034-8.095,7.535-13.495,8.528c-3.377,0.622-6.85,0.703-10.285,0.949c-1.421,0.102-1.935,0.475-1.963,1.945
		c-0.036,1.839-0.045,3.682,0.002,5.521c0.009,0.328,0.353,0.646,0.542,0.969c0.13-0.322,0.366-0.644,0.373-0.969
		c0.037-1.781,0.018-3.565,0.018-5.44C89.59,168.114,90.134,168.155,90.783,168.208z"/>
	<path fill="#F5F5F5" d="M112.057,167.931c0.011,0.038,0.012,0.084,0.035,0.106c-0.023-0.023-0.023-0.07-0.03-0.109
		C112.059,167.929,112.059,167.93,112.057,167.931z"/>
	<path fill="#F5F5F5" d="M164.1,157.666c0.138,0.005,0.275,0.01,0.414,0.014c0.098-0.533,0.193-1.065,0.293-1.599
		c0.264-1.43,0.412-2.895,0.822-4.278c0.759-2.57-0.812-5.563-3.378-6.187c0.947,1.952,0.634,3.621-1.341,5.015
		c-1.602,1.129-3.371,2.112-5.198,2.773c-3.846,1.39-7.87,1.946-11.962,1.939c-0.01,0.144-0.019,0.286-0.029,0.431
		c3.401,0.392,6.802,0.784,10.202,1.176c0.003,0.039,0.007,0.078,0.01,0.117c-5.395,0-10.789,0-16.184,0
		c1.085,0.903,1.072,0.903,1.107,2.43c0.029,1.298,0.092,2.594,0.141,3.891c0.182-0.004,0.365-0.007,0.547-0.011
		c0-1.65,0-3.301,0-4.919c1.027-0.281,1.489-0.103,1.485,0.857c-0.006,1.211,0.006,2.428,0.082,3.636
		c0.022,0.343,0.295,0.669,0.452,1.004c0.159-0.051,0.317-0.102,0.476-0.151c0-1.679,0-3.358,0-5.12
		c0.525,0.067,0.855,0.109,1.273,0.163c0,1.449-0.039,2.838,0.028,4.223c0.015,0.32,0.387,0.622,0.595,0.932
		c0.155-0.312,0.43-0.618,0.441-0.934c0.048-1.374,0.022-2.75,0.022-4.123c1.219,0.016,1.208,0.016,1.202,1.048
		c-0.005,1.123-0.027,2.249,0.051,3.366c0.019,0.279,0.391,0.534,0.6,0.799c0.165-0.267,0.46-0.527,0.473-0.801
		c0.053-1.166-0.02-2.338,0.047-3.502c0.003-0.043,0.01-0.085,0.021-0.127c0.019-0.074,0.05-0.148,0.089-0.221
		c0.029-0.054,0.062-0.108,0.097-0.164c0.104-0.163,0.23-0.324,0.321-0.488v0.001v-0.001c0.127,0.255,0.328,0.507,0.428,0.763
		c0.032,0.085,0.053,0.171,0.058,0.258c0.059,1.331,0.024,2.664,0.024,3.915c1,0.354,1.409,0.121,1.388-0.756
		c-0.02-0.764-0.082-1.531-0.02-2.289c0.051-0.639,0.252-1.264,0.388-1.896c0.196,0.645,0.477,1.277,0.568,1.938
		c0.127,0.921,0.114,1.864,0.16,2.769c1.021,0.385,1.419,0.08,1.357-0.927c-0.064-1.031-0.108-2.064-0.101-3.098
		c0.001-0.306,0.202-0.611,0.31-0.918c0.116,0.025,0.23,0.049,0.345,0.075c0.108,1.575,0.214,3.149,0.319,4.713
		c1.884-0.07,1.884-0.07,1.88-1.839c-0.001-1.104,0-2.207,0-3.312c0.164,0,0.328,0.002,0.49,0.002c0,1.524,0,3.048,0,4.578
		c1.437,0.106,2.065-0.372,2.029-1.656c-0.031-1.095-0.005-2.191-0.005-3.286c0.113-0.001,0.229-0.002,0.343-0.004
		c0,1.405,0,2.811,0,4.241c1.99-0.33,2.097-0.454,2.092-2.209c-0.002-0.934,0-1.87,0-2.805c0.052-0.01,0.102-0.02,0.153-0.03
		c0.078,1.313,0.157,2.626,0.236,3.948c1.349-0.124,1.784-0.777,1.731-1.917c-0.049-1.076-0.01-2.156-0.01-3.235
		c0.103-0.002,0.206-0.004,0.309-0.005c0.062,1.205,0.123,2.411,0.188,3.707c1.51-0.267,1.35-1.393,1.418-2.307
		c0.073-0.983,0.016-1.975,0.016-2.964c0.172-0.004,0.343-0.01,0.514-0.014C163.971,155.417,164.036,156.542,164.1,157.666z"/>
	<path fill="#F5F5F5" d="M146.977,159.342c0.104-0.163,0.23-0.324,0.321-0.487v-0.001
		C147.207,159.018,147.082,159.18,146.977,159.342z"/>
	<path fill="#F5F5F5" d="M98.792,137.887c-1.602-0.614-2.899-0.775-4.102,0.815c-0.471,0.623-1.377,0.921-2.121,1.297
		c-0.653,0.331-1.353,0.563-1.946,0.804c0.322,1.949,0.693,3.747,0.903,5.565c0.295,2.563,0.241,2.542,2.772,2.171
		c0.979-0.144,1.448-0.517,1.379-1.626c-0.091-1.46-0.022-2.931-0.022-4.397c0.209-0.03,0.417-0.062,0.627-0.093
		c0,1.799,0,3.597,0,5.357c1.548,0.119,1.916-0.49,1.782-1.69c-0.128-1.157-0.154-2.335-0.119-3.5
		c0.012-0.376,0.357-0.744,0.55-1.114c0.144,0.054,0.288,0.109,0.431,0.165c0,1.738,0,3.476,0,5.232
		c1.069,0.078,1.48-0.371,1.446-1.333c-0.05-1.348-0.123-2.699-0.07-4.043c0.016-0.404,0.417-0.791,0.642-1.185
		c0.107,0.061,0.215,0.121,0.323,0.18c0.094,1.679,0.189,3.357,0.283,5.038c0.118,0.025,0.236,0.051,0.354,0.077
		c0.142-0.353,0.367-0.696,0.407-1.061c0.073-0.667,0.105-1.356,0.028-2.02c-0.209-1.81,0.249-3.191,1.708-4.427
		c1.702-1.44,1.995-3.291,0.817-5.192c-0.839-1.353-2.019-2.627-3.322-3.5c-2.702-1.813-5.791-2.741-8.995-3.105
		c-1.381-0.16-2.793-0.027-4.191-0.027c0.009,0.077,0.02,0.157,0.03,0.234c1.268,0.426,2.537,0.852,3.577,1.201
		c-2.563,0.149-5.279,0.307-7.996,0.464c-0.003,0.146-0.005,0.294-0.008,0.44c4.516,1.292,9.773,0.856,12.76,5.749
		c0.961-0.318,1.906-0.65,2.863-0.944c0.861-0.264,0.995-0.847,0.59-1.543c-0.443-0.769-0.996-1.469-1.688-2.467
		c1.226,0.549,2.247,0.933,3.197,1.448c1.743,0.948,2.332,2.306,1.771,3.841C102.793,136.511,100.173,138.418,98.792,137.887z"/>
	<path fill="#F5F5F5" d="M108.439,157.086c0.147-0.558,0.392-1.109,0.423-1.674c0.145-2.479-0.175-4.951,0.931-7.38
		c0.85-1.866-0.283-4.932-3.01-5.925c0.386,0.941,0.555,1.613,0.907,2.163c0.962,1.505,0.131,4.119-1.438,4.007
		c-1.159-0.083-1.721,0.536-2.49,1.078c-0.894,0.63-1.823,1.349-2.838,1.624c-2.691,0.727-5.425,1.313-8.169,1.787
		c-0.896,0.154-1.26,0.398-1.415,1.314c-0.352,2.074-0.821,4.125-1.243,6.187c-0.112,0.545-0.227,1.088-0.358,1.722
		c1.106,0,2.024-0.083,2.923,0.02c1.268,0.145,1.579-0.407,1.506-1.611c-0.092-1.525-0.022-3.06-0.022-4.59
		c0.15-0.003,0.301-0.006,0.451-0.009c0,1.973,0,3.947,0,5.879c2.375,0.256,2.48,0.167,2.478-1.857c0-1.337,0-2.673,0-4.009
		c0.136,0,0.272-0.002,0.408-0.002c0,1.888,0,3.776,0,5.733c0.816-0.161,1.364-0.268,2.059-0.403c0-1.868,0-3.724,0-5.58
		c0.127,0.013,0.255,0.027,0.384,0.04c0,0.894,0,1.788,0,2.683c0,0.876,0,1.752,0,2.651c2.298-0.283,2.289-0.289,2.257-2.261
		c-0.023-1.42-0.004-2.842-0.004-4.262c0.064-0.003,0.127-0.006,0.191-0.01c0.089,1.899,0.178,3.797,0.269,5.748
		c1.333-0.187,1.977-0.727,1.854-2.119c-0.12-1.338-0.093-2.695-0.042-4.039c0.019-0.453,0.314-0.895,0.483-1.341
		c0.156,0.045,0.312,0.087,0.468,0.131c0,1.988,0,3.973,0,5.973c1.128-0.012,1.427-0.568,1.405-1.48
		c-0.041-1.662-0.072-3.326-0.019-4.985c0.015-0.424,0.368-0.837,0.566-1.255c0.177,0.052,0.354,0.104,0.529,0.156
		c0,1.934,0,3.869,0,5.803C108.071,157.021,108.255,157.055,108.439,157.086z"/>
	<path fill="#F5F5F5" d="M58.88,121.47c0.831-0.743,1.793-1.376,2.469-2.247c4.472-5.759,8.924-11.537,13.305-17.369
		c8.44-11.24,16.841-22.511,25.235-33.787c4.89-6.565,9.734-13.166,14.606-19.744c0.572-0.774,0.981-1.497-0.125-2.208
		c-18.682,24.963-37.35,49.905-56.019,74.847C58.528,121.132,58.704,121.301,58.88,121.47z"/>
	<path fill="#F5F5F5" d="M120.104,34.027c-0.881-0.848-1.678-1.673-2.533-2.429c-2.64-2.333-5.535-4.252-8.859-5.38
		c-0.587-0.199-1.539-0.277-1.916,0.064c-1.824,1.644-3.507,3.45-5.257,5.217c8.453,1.798,14.32,6.48,17.451,14.89
		c1.385-1.995,2.791-3.982,4.14-6.008c0.178-0.27,0.197-0.796,0.07-1.11c-0.363-0.888-0.839-1.727-1.375-2.792
		c-1.217,1.636-2.28,3.063-3.34,4.488c-0.351-0.462-0.716-1.093-1.217-1.57c-0.634-0.603-0.579-1.059-0.047-1.691
		C118.161,36.589,119.03,35.407,120.104,34.027z M115.638,37.149c-0.461-0.439-0.803-0.762-1.229-1.167
		c0.876-1.048,1.691-2.022,2.6-3.107c0.394,0.38,0.757,0.73,1.199,1.157C117.357,35.065,116.557,36.037,115.638,37.149z"/>
	<path fill="#F5F5F5" d="M183.328,72.966c-0.828,5.402-3.196,9.43-8.745,10.964c5.797,1.805,7.807,6.22,8.393,11.417
		c0.87-2.208,1.591-4.697,2.791-6.911c1.284-2.368,3.764-3.398,6.233-4.486C186.378,82.492,184.312,78.249,183.328,72.966z"/>
	<path fill="#F5F5F5" d="M175.936,130.917c-0.862,5.367-3.426,9.142-8.884,10.564c5.803,1.701,7.923,6.087,8.827,11.563
		c0.763-5.579,3.145-9.75,8.779-11.486C179.058,140.203,176.962,136.089,175.936,130.917z"/>
	<path fill="#F5F5F5" d="M140.905,16.558c0.47-0.54,0.819-0.998,1.224-1.397c1.986-1.96,2.003-4.139,0.725-6.479
		c-2.1-3.844-5.256-6.423-9.2-8.012c-1.672-0.673-3.218-0.215-4.443,1.078c-0.875,0.922-1.6,1.993-2.498,3.132
		C132.466,7.555,137.068,11.507,140.905,16.558z M140.598,13.916c-0.591-0.718-1.162-1.409-1.762-2.137
		c0.732-0.931,1.406-1.789,2.123-2.701C142.502,11.25,142.498,11.309,140.598,13.916z M139.097,6.553
		c0.408,0.455,0.749,0.835,1.113,1.242c-0.747,0.956-1.44,1.845-2.209,2.829c-0.48-0.375-0.905-0.708-1.363-1.068
		C137.469,8.54,138.216,7.629,139.097,6.553z"/>
	<path fill="#F5F5F5" d="M2.819,122.012c2.33,1.024,4.663,1.865,5.819,4.131c1.073,2.107,1.745,4.43,2.574,6.606
		c0.659-5.088,2.899-9.054,8.319-10.687c-5.536-1.355-7.44-5.511-8.397-10.584C10.316,116.653,8.028,120.501,2.819,122.012z"/>
	<path fill="#F5F5F5" d="M83.708,98.233c-1.515,1.29-1.865,2.935-1.886,4.894c-0.079,7.628,2.14,14.565,5.75,21.112
		c0.147,0.267,0.48,0.565,0.753,0.595c1.369,0.154,2.747,0.221,4.469,0.344c-6.012-8.688-8.571-18.046-7.521-28.45
		C84.638,97.211,84.228,97.79,83.708,98.233z"/>
	<path fill="#F5F5F5" d="M76.698,29.601c-4.65-0.99-6.4-4.424-7.092-8.429c-0.793,1.774-1.299,3.852-2.501,5.331
		c-1.2,1.478-3.098,2.356-4.733,3.529c4.516,1.129,6.299,4.62,6.954,9.271C71.083,33.308,71.083,33.308,76.698,29.601z"/>
	<path fill="#F5F5F5" d="M106.91,177.95c2.175,0,4.363,0.154,6.522-0.031c4.738-0.406,9.346-1.383,13.316-4.317
		c0.823-0.608,1.522-1.394,2.278-2.098c-0.028-0.157-0.056-0.316-0.084-0.473c-2.078-0.615-4.152-1.242-6.239-1.823
		c-0.172-0.049-0.495,0.164-0.634,0.348c-2.065,2.717-4.989,3.995-8.028,5.067c-1.347,0.477-2.727,0.855-4.092,1.277
		c0.006,0.063,0.011,0.124,0.017,0.184c0.847,0.123,1.696,0.245,2.863,0.415c-2.196,0.424-4.063,0.784-5.931,1.145
		C106.901,177.746,106.905,177.847,106.91,177.95z"/>
	<path fill="#F5F5F5" d="M76.355,111.589c0.511,4.362,1.698,8.512,3.747,12.378c0.229,0.431,0.669,1.048,1.02,1.054
		c1.183,0.022,2.371-0.191,3.729-0.333c-3.698-6.153-5.341-12.741-5.851-19.99c-1.829,1.886-3.471,3.503-2.705,6.221
		C76.354,111.131,76.33,111.367,76.355,111.589z"/>
	<path fill="#F5F5F5" d="M24.522,116.075c0.721-4.244,2.714-7.293,6.985-8.521c-4.034-0.906-6.19-3.434-6.837-7.323
		c-0.872,1.673-1.426,3.548-2.611,4.781c-1.183,1.229-3,1.815-4.658,2.752C21.704,108.759,23.737,111.787,24.522,116.075z"/>
	<path fill="#F5F5F5" d="M181.755,110.651c-0.529,3.993-2.608,6.457-6.449,7.442c3.987,0.947,5.952,3.505,6.434,7.453
		c0.797-1.75,1.234-3.501,2.261-4.739c1.034-1.247,2.652-1.983,4.071-2.981C184.361,117.143,182.77,114.212,181.755,110.651z"/>
	<path fill="#F5F5F5" d="M12.946,50.712c1.031,1.25,1.466,3.02,2.212,4.672c0.494-3.759,2.396-6.369,6.138-7.497
		c-3.712-0.917-5.597-3.304-6.329-6.973c-0.629,3.807-2.929,5.906-6.191,6.731C10.28,48.71,11.909,49.453,12.946,50.712z"/>
	<path fill="#F5F5F5" d="M70.84,61.991c0.712-3.58,2.582-5.916,6.108-6.782c-3.234-0.899-5.333-2.723-6.093-6.164
		c-0.596,3.629-3.031,5.171-6.112,6.231C68.278,56.151,70.126,58.478,70.84,61.991z"/>
	<path fill="#F5F5F5" d="M79.097,35.859c3.334,0.968,5.221,3.128,5.826,6.637c0.683-3.318,2.296-5.696,5.709-6.603
		c-3.197-0.873-5.065-2.848-5.683-6.17C84.369,33.244,82.077,34.854,79.097,35.859z"/>
	<path fill="#F5F5F5" d="M31.992,35.457c-3.375-0.833-4.979-3.083-5.725-6.319c-0.581,3.346-2.435,5.329-5.605,6.275
		c3.324,0.857,5.027,3.107,5.684,6.394C27.003,38.501,28.518,36.14,31.992,35.457z"/>
	<path fill="#F5F5F5" d="M46.337,95.479c-10.608-0.839-19.632-5.048-27.043-13.362C24.701,92.915,37.541,97.759,46.337,95.479z"/>
	<path fill="#F5F5F5" d="M10.556,94.609c-2.904-0.644-4.453-2.495-5.185-5.305c-0.514,2.943-2.205,4.526-4.901,5.273
		c3.114,0.636,4.299,2.885,4.965,5.686C6.038,97.286,7.541,95.309,10.556,94.609z"/>
	<path fill="#F5F5F5" d="M153.166,23.477c0.517-2.892,2.029-4.83,4.841-5.736c-2.645-0.724-4.136-2.438-4.786-5.089
		c-0.692,2.729-2.351,4.325-4.932,5.069C151.134,18.634,152.584,20.598,153.166,23.477z"/>
	<path fill="#F5F5F5" d="M167.089,32.619c0.43-2.927,2.133-4.58,4.787-5.473c-2.469-0.718-4.247-1.983-4.781-4.7
		c-0.541,2.69-2.323,3.916-4.625,4.729C165.25,27.948,166.549,29.885,167.089,32.619z"/>
	<path fill="#F5F5F5" d="M4.592,69.4c0.463-2.601,1.897-4.162,4.378-4.957c-2.53-0.563-3.8-2.227-4.408-4.63
		C3.99,62.399,2.308,63.677,0,64.441C2.573,65.144,3.994,66.822,4.592,69.4z"/>
	<path fill="#F5F5F5" d="M47.38,27.315c0.562-2.268,1.644-3.981,3.972-4.527c-0.981-0.656-1.947-1.085-2.608-1.808
		c-0.637-0.697-0.958-1.698-1.522-2.763c-0.457,2.489-1.963,3.779-4.129,4.477C45.625,23.201,46.809,24.896,47.38,27.315z"/>
	<path fill="#F5F5F5" d="M91.576,137.568c1.201-1.028,1.11-2.144-0.309-2.793c-1.009-0.463-2.133-0.656-3.206-0.969
		c-0.088,0.102-0.178,0.204-0.266,0.305c0.669,1.483,1.338,2.966,2.064,4.577C90.5,138.277,91.089,137.987,91.576,137.568z"/>
	<path fill="#F5F5F5" d="M118.239,166.747c-0.528-0.133-1.075-0.186-1.42-0.244c-0.483,1.897-0.927,3.635-1.487,5.828
		c1.413-1.171,2.746-2.015,3.736-3.171C120.158,167.892,119.808,167.146,118.239,166.747z"/>
	<path fill="#F5F5F5" d="M129.747,166.566c-1.608-2.777-4.098-4.392-7.023-5.361c1.111,0.908,2.337,1.664,3.415,2.6
		c1.943,1.684,3.983,3.369,3.542,6.491C130.361,169.116,130.441,167.764,129.747,166.566z"/>
	<path fill="#F5F5F5" d="M40.574,66.182c4.8,1.837,7.707,6.043,6.493,9.395c-1.214,3.352-6.09,4.579-10.89,2.741
		c-4.8-1.837-7.707-6.043-6.493-9.395C30.898,65.571,35.774,64.344,40.574,66.182z"/>
</g>
</svg>
