<?xml version="1.0" encoding="utf-8"?>
<!-- Generator: Adobe Illustrator 16.0.0, SVG Export Plug-In . SVG Version: 6.00 Build 0)  -->
<!DOCTYPE svg PUBLIC "-//W3C//DTD SVG 1.1//EN" "http://www.w3.org/Graphics/SVG/1.1/DTD/svg11.dtd">
<svg version="1.1" id="Layer_1" xmlns="http://www.w3.org/2000/svg" xmlns:xlink="http://www.w3.org/1999/xlink" x="0px" y="0px"
	 width="48px" height="48px" viewBox="0 0 48 48" enable-background="new 0 0 48 48" xml:space="preserve">
<g>
	<path fill="#C0C0C0" d="M44.625,3.375C41.25,0,35.818,0,24.964,0h-1.927C12.183,0,6.75,0,3.375,3.375S0,12.183,0,23.035v1.929
		C0,35.818,0,41.25,3.375,44.625S12.183,48,23.035,48h1.929c10.853,0,16.284,0,19.659-3.375S48,35.818,48,24.964v-1.927
		C48,12.183,48,6.75,44.625,3.375z M46,24.884c0,9.95-0.002,14.929-3.096,18.022C39.811,45.999,34.832,46,24.884,46h-1.768
		c-9.948,0-14.928,0-18.022-3.094C2,39.813,2,34.834,2,24.884v-1.768C2,13.168,2,8.188,5.094,5.094C8.188,2,13.168,2,23.117,2h1.767
		c9.95,0,14.929,0,18.022,3.094C45.999,8.188,46,13.168,46,23.117V24.884z"/>
	<path fill="#F5F5F5" d="M8.531,8.531C6,11.063,6,15.138,6,23.277v1.446c0,8.142,0,12.215,2.531,14.746
		C11.062,42,15.137,42,23.277,42h1.446c8.141,0,12.215,0,14.745-2.531C41.999,36.938,42,32.863,42,24.723v-1.445
		c0-8.139,0-12.215-2.531-14.746C36.938,6.001,32.863,6,24.723,6h-1.445C15.137,6,11.063,6,8.531,8.531z M12.074,16.953h4.106
		c0.138,6.869,3.166,9.777,5.569,10.375V16.953h3.87v5.922c2.371-0.257,4.855-2.956,5.699-5.922h3.875
		c-0.319,1.539-0.953,2.997-1.859,4.281c-0.902,1.289-2.066,2.373-3.414,3.186c1.504,0.743,2.831,1.803,3.893,3.102
		c1.063,1.291,1.84,2.795,2.279,4.41h-4.266c-0.391-1.4-1.188-2.656-2.292-3.606c-1.104-0.953-2.466-1.56-3.914-1.747v5.354h-0.463
		C16.952,31.93,12.267,26.305,12.074,16.953L12.074,16.953z"/>
</g>
</svg>
