<?xml version="1.0" encoding="utf-8"?>
<!-- Generator: Adobe Illustrator 16.0.0, SVG Export Plug-In . SVG Version: 6.00 Build 0)  -->
<!DOCTYPE svg PUBLIC "-//W3C//DTD SVG 1.1//EN" "http://www.w3.org/Graphics/SVG/1.1/DTD/svg11.dtd">
<svg version="1.1" id="Layer_1" xmlns="http://www.w3.org/2000/svg" xmlns:xlink="http://www.w3.org/1999/xlink" x="0px" y="0px"
	 width="48px" height="48px" viewBox="0 0 48 48" enable-background="new 0 0 48 48" xml:space="preserve">
<g>
	<path fill="#F5F5F5" d="M44.625,3.375C41.25,0,35.818,0,24.964,0h-1.927C12.183,0,6.75,0,3.375,3.375S0,12.183,0,23.035v1.929
		C0,35.818,0,41.25,3.375,44.625S12.183,48,23.035,48h1.929c10.853,0,16.284,0,19.659-3.375S48,35.818,48,24.964v-1.927
		C48,12.183,48,6.75,44.625,3.375z M46,24.884c0,9.95-0.002,14.929-3.096,18.022S34.832,46,24.884,46h-1.768
		c-9.948,0-14.928,0-18.022-3.094S2,34.834,2,24.884v-1.768C2,13.168,2,8.188,5.094,5.094S13.168,2,23.117,2h1.767
		c9.95,0,14.929,0,18.022,3.094S46,13.168,46,23.117V24.884z"/>
	<path fill="#F5F5F5" d="M36.031,11.969C34.063,10,30.895,10,24.563,10h-1.125c-6.331,0-9.5,0-11.469,1.969S10,17.107,10,23.438
		v1.125c0,6.332,0,9.5,1.969,11.469S17.107,38,23.438,38h1.125c6.331,0,9.499,0,11.468-1.969S38,30.895,38,24.563v-1.125
		C38,17.107,38,13.938,36.031,11.969z"/>
	<path fill="#0077FF" d="M8.531,8.531C6,11.063,6,15.138,6,23.277v1.446c0,8.141,0,12.215,2.531,14.746S15.137,42,23.277,42h1.446
		c8.14,0,12.214,0,14.745-2.531S42,32.863,42,24.723v-1.445c0-8.139,0-12.215-2.531-14.746S32.863,6,24.723,6h-1.445
		C15.137,6,11.063,6,8.531,8.531z M12.074,16.953h4.106c0.138,6.869,3.166,9.778,5.569,10.375V16.953h3.87v5.922
		c2.371-0.257,4.855-2.956,5.699-5.922h3.875c-0.319,1.539-0.953,2.997-1.859,4.281c-0.903,1.289-2.067,2.373-3.414,3.186
		c1.504,0.743,2.831,1.802,3.892,3.101c1.063,1.292,1.841,2.795,2.28,4.41h-4.266c-0.391-1.4-1.188-2.655-2.292-3.606
		c-1.105-0.953-2.466-1.56-3.914-1.747v5.353h-0.463C16.952,31.93,12.267,26.305,12.074,16.953L12.074,16.953z"/>
</g>
</svg>
